<mxfile host="app.diagrams.net" modified="2022-07-03T22:16:53.819Z" agent="5.0 (Windows)" etag="aV7RK3wJO78t_S_ZbhwC" version="20.0.4" type="github">
  <diagram id="MtrJVW5TLIUmqKNrYWlB" name="Page-1">
    <mxGraphModel dx="1422" dy="744" grid="1" gridSize="10" guides="1" tooltips="1" connect="1" arrows="1" fold="1" page="1" pageScale="1" pageWidth="850" pageHeight="1100" math="0" shadow="0">
      <root>
        <mxCell id="0" />
        <mxCell id="1" parent="0" />
        <mxCell id="KnQKcJEZRQkaZnGEiB0X-4" value="" style="shape=umlActor;verticalLabelPosition=bottom;verticalAlign=top;html=1;outlineConnect=0;strokeWidth=3;sketch=1;shadow=0;fillColor=none;fontColor=#333333;strokeColor=#FF0000;" vertex="1" parent="1">
          <mxGeometry x="450" y="40" width="60" height="120" as="geometry" />
        </mxCell>
        <mxCell id="KnQKcJEZRQkaZnGEiB0X-6" value="&lt;h1 align=&quot;center&quot;&gt;&lt;font face=&quot;Lucida Console&quot;&gt;just a little test of draw.io...&lt;br&gt;&lt;/font&gt;&lt;/h1&gt;&lt;p align=&quot;center&quot;&gt;&lt;font face=&quot;Lucida Console&quot;&gt;Lorem ipsum dolor sit amet, consectetur adipisicing elit, sed do eiusmod tempor incididunt ut labore et dolore magna aliqua.&lt;/font&gt;&lt;/p&gt;" style="text;html=1;strokeColor=#B09500;fillColor=#e3c800;spacing=5;spacingTop=-20;whiteSpace=wrap;overflow=hidden;rounded=1;fontColor=#000000;gradientColor=#FF5E00;gradientDirection=west;glass=0;shadow=0;sketch=0;align=center;" vertex="1" parent="1">
          <mxGeometry x="40" y="30" width="370" height="140" as="geometry" />
        </mxCell>
      </root>
    </mxGraphModel>
  </diagram>
</mxfile>
